<?xml version="1.0" encoding="UTF-8" standalone="no"?>
<!DOCTYPE svg PUBLIC "-//W3C//DTD SVG 1.1//EN" "http://www.w3.org/Graphics/SVG/1.1/DTD/svg11.dtd">
<svg width="100%" height="100%" viewBox="0 0 540 89" version="1.1" xmlns="http://www.w3.org/2000/svg" xmlns:xlink="http://www.w3.org/1999/xlink" xml:space="preserve" xmlns:serif="http://www.serif.com/" style="fill-rule:evenodd;clip-rule:evenodd;stroke-linejoin:round;stroke-miterlimit:2;">
    <g transform="matrix(1,0,0,1,-130,-220)">
        <g transform="matrix(1.71041,0,0,1.71041,-252.789,-124.321)">
            <g transform="matrix(60,0,0,60,293.008,241.24)">
                <path d="M0.183,-0.641C0.194,-0.641 0.202,-0.638 0.206,-0.634C0.211,-0.629 0.213,-0.621 0.213,-0.61L0.213,-0.404C0.23,-0.423 0.249,-0.437 0.271,-0.447C0.293,-0.457 0.316,-0.462 0.342,-0.462C0.384,-0.462 0.422,-0.451 0.454,-0.431C0.486,-0.41 0.51,-0.382 0.527,-0.346C0.544,-0.31 0.552,-0.27 0.552,-0.226C0.552,-0.181 0.544,-0.141 0.527,-0.105C0.51,-0.07 0.486,-0.041 0.454,-0.021C0.422,0 0.384,0.011 0.342,0.011C0.311,0.011 0.283,0.003 0.257,-0.011C0.232,-0.025 0.211,-0.046 0.194,-0.072L0.194,-0.031C0.194,-0.02 0.191,-0.012 0.187,-0.007C0.182,-0.002 0.174,-0 0.163,-0L0.054,-0C0.046,-0 0.04,-0.001 0.036,-0.004C0.031,-0.007 0.028,-0.012 0.026,-0.019C0.024,-0.026 0.023,-0.037 0.023,-0.05C0.023,-0.064 0.024,-0.074 0.026,-0.082C0.028,-0.089 0.031,-0.094 0.036,-0.096C0.04,-0.099 0.046,-0.1 0.054,-0.1L0.091,-0.1L0.091,-0.541L0.044,-0.541C0.036,-0.541 0.03,-0.542 0.026,-0.544C0.022,-0.547 0.018,-0.552 0.016,-0.559C0.014,-0.566 0.013,-0.577 0.013,-0.59C0.013,-0.604 0.014,-0.614 0.016,-0.622C0.018,-0.629 0.022,-0.634 0.026,-0.636C0.03,-0.639 0.036,-0.641 0.044,-0.641L0.183,-0.641ZM0.322,-0.351C0.301,-0.351 0.283,-0.346 0.266,-0.336C0.249,-0.327 0.235,-0.312 0.225,-0.293C0.215,-0.274 0.21,-0.252 0.21,-0.226C0.21,-0.2 0.215,-0.177 0.225,-0.158C0.235,-0.139 0.249,-0.125 0.266,-0.115C0.283,-0.105 0.301,-0.1 0.322,-0.1C0.342,-0.1 0.36,-0.105 0.375,-0.115C0.39,-0.126 0.401,-0.14 0.409,-0.159C0.417,-0.178 0.421,-0.2 0.421,-0.226C0.421,-0.251 0.417,-0.273 0.409,-0.292C0.401,-0.311 0.39,-0.325 0.375,-0.336C0.36,-0.346 0.342,-0.351 0.322,-0.351Z" style="fill:rgb(255,255,255);fill-rule:nonzero;"/>
            </g>
            <g transform="matrix(60,0,0,60,328.985,241.24)">
                <path d="M0.337,-0.451C0.348,-0.451 0.356,-0.449 0.361,-0.444C0.365,-0.439 0.368,-0.431 0.368,-0.42L0.368,-0.1L0.505,-0.1C0.513,-0.1 0.519,-0.099 0.523,-0.096C0.527,-0.093 0.53,-0.088 0.532,-0.081C0.535,-0.074 0.536,-0.063 0.536,-0.05C0.536,-0.036 0.535,-0.026 0.532,-0.019C0.53,-0.011 0.527,-0.007 0.523,-0.004C0.519,-0.001 0.513,-0 0.505,-0L0.112,-0C0.104,-0 0.098,-0.001 0.094,-0.004C0.09,-0.007 0.087,-0.011 0.085,-0.019C0.083,-0.026 0.082,-0.036 0.082,-0.05C0.082,-0.063 0.083,-0.074 0.085,-0.081C0.087,-0.088 0.09,-0.093 0.094,-0.096C0.098,-0.099 0.104,-0.1 0.112,-0.1L0.246,-0.1L0.246,-0.351L0.142,-0.351C0.134,-0.351 0.128,-0.352 0.124,-0.355C0.119,-0.358 0.116,-0.362 0.114,-0.37C0.112,-0.377 0.111,-0.387 0.111,-0.401C0.111,-0.415 0.112,-0.425 0.114,-0.432C0.116,-0.439 0.119,-0.444 0.124,-0.447C0.128,-0.45 0.134,-0.451 0.142,-0.451L0.337,-0.451ZM0.305,-0.666C0.328,-0.666 0.344,-0.663 0.354,-0.658C0.363,-0.654 0.368,-0.646 0.368,-0.635L0.368,-0.555C0.368,-0.544 0.363,-0.536 0.355,-0.531C0.346,-0.526 0.33,-0.524 0.308,-0.524C0.285,-0.524 0.269,-0.526 0.26,-0.531C0.25,-0.536 0.246,-0.544 0.246,-0.555L0.246,-0.635C0.246,-0.646 0.25,-0.654 0.258,-0.659C0.267,-0.663 0.282,-0.666 0.305,-0.666Z" style="fill:rgb(255,255,255);fill-rule:nonzero;"/>
            </g>
            <g transform="matrix(60,0,0,60,364.961,241.24)">
                <path d="M0.37,-0.462C0.399,-0.462 0.425,-0.455 0.448,-0.442C0.47,-0.429 0.487,-0.411 0.499,-0.387C0.511,-0.363 0.517,-0.335 0.517,-0.303L0.517,-0.1L0.555,-0.1C0.563,-0.1 0.569,-0.099 0.573,-0.096C0.577,-0.093 0.58,-0.088 0.582,-0.081C0.584,-0.074 0.585,-0.063 0.585,-0.05C0.585,-0.036 0.584,-0.026 0.582,-0.019C0.58,-0.011 0.577,-0.007 0.573,-0.004C0.569,-0.001 0.563,-0 0.555,-0L0.372,-0C0.364,-0 0.358,-0.001 0.354,-0.004C0.35,-0.007 0.347,-0.011 0.344,-0.019C0.342,-0.026 0.341,-0.036 0.341,-0.05C0.341,-0.063 0.342,-0.074 0.344,-0.081C0.347,-0.088 0.35,-0.093 0.354,-0.096C0.358,-0.099 0.364,-0.1 0.372,-0.1L0.395,-0.1L0.395,-0.274C0.395,-0.299 0.391,-0.319 0.382,-0.332C0.373,-0.345 0.358,-0.351 0.338,-0.351C0.319,-0.351 0.301,-0.343 0.284,-0.327C0.267,-0.312 0.254,-0.291 0.243,-0.264C0.233,-0.238 0.228,-0.21 0.228,-0.18L0.228,-0.1L0.251,-0.1C0.259,-0.1 0.265,-0.099 0.269,-0.096C0.273,-0.093 0.276,-0.088 0.279,-0.081C0.281,-0.074 0.282,-0.063 0.282,-0.05C0.282,-0.036 0.281,-0.026 0.279,-0.019C0.276,-0.011 0.273,-0.007 0.269,-0.004C0.265,-0.001 0.259,-0 0.251,-0L0.068,-0C0.061,-0 0.055,-0.001 0.05,-0.004C0.046,-0.007 0.043,-0.011 0.041,-0.019C0.039,-0.026 0.038,-0.036 0.038,-0.05C0.038,-0.063 0.039,-0.074 0.041,-0.081C0.043,-0.088 0.046,-0.093 0.05,-0.096C0.055,-0.099 0.061,-0.1 0.068,-0.1L0.106,-0.1L0.106,-0.351L0.059,-0.351C0.051,-0.351 0.045,-0.352 0.041,-0.355C0.036,-0.358 0.033,-0.362 0.031,-0.37C0.029,-0.377 0.028,-0.387 0.028,-0.401C0.028,-0.415 0.029,-0.425 0.031,-0.432C0.033,-0.439 0.036,-0.444 0.041,-0.447C0.045,-0.45 0.051,-0.451 0.059,-0.451L0.178,-0.451C0.189,-0.451 0.197,-0.449 0.201,-0.444C0.206,-0.439 0.208,-0.431 0.208,-0.42L0.208,-0.35C0.251,-0.424 0.305,-0.462 0.37,-0.462Z" style="fill:rgb(255,255,255);fill-rule:nonzero;"/>
            </g>
            <g transform="matrix(60,0,0,60,400.938,241.24)">
                <path d="M0.294,-0.462C0.366,-0.462 0.418,-0.446 0.45,-0.416C0.482,-0.385 0.498,-0.34 0.498,-0.283L0.498,-0.142C0.498,-0.129 0.5,-0.118 0.506,-0.111C0.511,-0.104 0.519,-0.1 0.53,-0.1L0.545,-0.1C0.553,-0.1 0.559,-0.099 0.563,-0.096C0.567,-0.093 0.57,-0.088 0.573,-0.081C0.575,-0.074 0.576,-0.063 0.576,-0.05C0.576,-0.036 0.575,-0.026 0.573,-0.019C0.57,-0.011 0.567,-0.007 0.563,-0.004C0.559,-0.001 0.553,-0 0.545,-0L0.49,-0C0.47,-0 0.452,-0.004 0.437,-0.012C0.421,-0.021 0.41,-0.034 0.401,-0.052C0.376,-0.032 0.348,-0.017 0.32,-0.006C0.291,0.005 0.262,0.011 0.231,0.011C0.195,0.011 0.163,0.004 0.136,-0.008C0.11,-0.021 0.089,-0.038 0.075,-0.062C0.061,-0.085 0.054,-0.112 0.054,-0.144C0.054,-0.19 0.07,-0.225 0.102,-0.25C0.134,-0.275 0.179,-0.288 0.237,-0.288C0.281,-0.288 0.327,-0.283 0.375,-0.273L0.375,-0.287C0.375,-0.309 0.369,-0.325 0.355,-0.335C0.341,-0.346 0.317,-0.351 0.283,-0.351C0.264,-0.351 0.242,-0.349 0.219,-0.344C0.195,-0.339 0.172,-0.333 0.148,-0.325C0.143,-0.324 0.138,-0.323 0.134,-0.323C0.126,-0.323 0.119,-0.326 0.113,-0.332C0.106,-0.338 0.1,-0.348 0.095,-0.362C0.09,-0.377 0.088,-0.388 0.088,-0.397C0.088,-0.414 0.095,-0.425 0.11,-0.431C0.139,-0.441 0.17,-0.449 0.203,-0.454C0.235,-0.459 0.266,-0.462 0.294,-0.462ZM0.25,-0.187C0.227,-0.187 0.209,-0.183 0.198,-0.175C0.186,-0.167 0.18,-0.155 0.18,-0.139C0.18,-0.124 0.185,-0.112 0.197,-0.104C0.209,-0.096 0.225,-0.092 0.247,-0.092C0.27,-0.092 0.292,-0.097 0.314,-0.106C0.336,-0.115 0.356,-0.127 0.375,-0.143L0.375,-0.174C0.333,-0.183 0.291,-0.187 0.25,-0.187Z" style="fill:rgb(255,255,255);fill-rule:nonzero;"/>
            </g>
            <g transform="matrix(60,0,0,60,436.914,241.24)">
                <path d="M0.453,-0.462C0.48,-0.462 0.506,-0.453 0.531,-0.435C0.545,-0.424 0.552,-0.41 0.552,-0.394C0.552,-0.383 0.549,-0.37 0.543,-0.355C0.538,-0.341 0.531,-0.33 0.524,-0.322C0.516,-0.315 0.509,-0.311 0.5,-0.311C0.496,-0.311 0.491,-0.312 0.486,-0.315C0.468,-0.325 0.449,-0.33 0.429,-0.33C0.404,-0.33 0.381,-0.322 0.359,-0.306C0.337,-0.29 0.32,-0.268 0.306,-0.24C0.293,-0.212 0.287,-0.181 0.287,-0.146L0.287,-0.1L0.427,-0.1C0.435,-0.1 0.441,-0.099 0.445,-0.096C0.449,-0.093 0.452,-0.088 0.454,-0.081C0.456,-0.074 0.458,-0.063 0.458,-0.05C0.458,-0.036 0.456,-0.026 0.454,-0.019C0.452,-0.011 0.449,-0.007 0.445,-0.004C0.441,-0.001 0.435,-0 0.427,-0L0.093,-0C0.085,-0 0.079,-0.001 0.075,-0.004C0.07,-0.007 0.067,-0.011 0.065,-0.019C0.063,-0.026 0.062,-0.036 0.062,-0.05C0.062,-0.063 0.063,-0.074 0.065,-0.081C0.067,-0.088 0.07,-0.093 0.075,-0.096C0.079,-0.099 0.085,-0.1 0.093,-0.1L0.165,-0.1L0.165,-0.351L0.107,-0.351C0.1,-0.351 0.094,-0.352 0.089,-0.355C0.085,-0.358 0.082,-0.362 0.08,-0.37C0.078,-0.377 0.077,-0.387 0.077,-0.401C0.077,-0.415 0.078,-0.425 0.08,-0.432C0.082,-0.439 0.085,-0.444 0.089,-0.447C0.094,-0.45 0.1,-0.451 0.107,-0.451L0.241,-0.451C0.252,-0.451 0.26,-0.449 0.265,-0.444C0.27,-0.439 0.272,-0.431 0.272,-0.42L0.272,-0.314C0.296,-0.362 0.324,-0.398 0.356,-0.424C0.388,-0.449 0.42,-0.462 0.453,-0.462Z" style="fill:rgb(255,255,255);fill-rule:nonzero;"/>
            </g>
            <g transform="matrix(60,0,0,60,472.891,241.24)">
                <path d="M0.549,-0.451C0.557,-0.451 0.563,-0.45 0.567,-0.447C0.572,-0.444 0.575,-0.439 0.577,-0.432C0.579,-0.425 0.58,-0.415 0.58,-0.401C0.58,-0.387 0.579,-0.377 0.577,-0.37C0.575,-0.362 0.572,-0.358 0.567,-0.355C0.563,-0.352 0.557,-0.351 0.549,-0.351L0.518,-0.351L0.331,0.028C0.308,0.074 0.287,0.109 0.266,0.133C0.245,0.156 0.222,0.173 0.195,0.183C0.169,0.193 0.134,0.199 0.092,0.2C0.081,0.201 0.072,0.196 0.066,0.187C0.06,0.178 0.057,0.161 0.057,0.137C0.057,0.121 0.059,0.109 0.063,0.102C0.068,0.094 0.074,0.09 0.082,0.09C0.108,0.088 0.129,0.083 0.145,0.075C0.161,0.067 0.176,0.054 0.189,0.036C0.202,0.019 0.218,-0.008 0.236,-0.044L0.087,-0.351L0.05,-0.351C0.042,-0.351 0.036,-0.352 0.032,-0.355C0.028,-0.358 0.025,-0.362 0.023,-0.37C0.021,-0.377 0.02,-0.387 0.02,-0.401C0.02,-0.415 0.021,-0.425 0.023,-0.432C0.025,-0.439 0.028,-0.444 0.032,-0.447C0.036,-0.45 0.042,-0.451 0.05,-0.451L0.248,-0.451C0.255,-0.451 0.261,-0.45 0.266,-0.447C0.27,-0.444 0.273,-0.439 0.275,-0.432C0.277,-0.425 0.278,-0.415 0.278,-0.401C0.278,-0.387 0.277,-0.377 0.275,-0.37C0.273,-0.362 0.27,-0.358 0.266,-0.355C0.261,-0.352 0.255,-0.351 0.248,-0.351L0.218,-0.351L0.303,-0.166L0.388,-0.351L0.362,-0.351C0.354,-0.351 0.348,-0.352 0.344,-0.355C0.34,-0.358 0.336,-0.362 0.334,-0.37C0.332,-0.377 0.331,-0.387 0.331,-0.401C0.331,-0.415 0.332,-0.425 0.334,-0.432C0.336,-0.439 0.34,-0.444 0.344,-0.447C0.348,-0.45 0.354,-0.451 0.362,-0.451L0.549,-0.451Z" style="fill:rgb(255,255,255);fill-rule:nonzero;"/>
            </g>
            <g transform="matrix(60,0,0,60,508.867,241.24)">
                <path d="M0.288,-0.59C0.354,-0.59 0.405,-0.576 0.44,-0.548C0.476,-0.519 0.494,-0.478 0.494,-0.424C0.494,-0.369 0.471,-0.329 0.425,-0.305C0.452,-0.292 0.473,-0.275 0.488,-0.253C0.503,-0.231 0.511,-0.205 0.511,-0.174C0.511,-0.113 0.49,-0.067 0.449,-0.036C0.407,-0.005 0.35,0.011 0.275,0.011C0.211,0.011 0.155,-0.002 0.108,-0.027C0.096,-0.033 0.089,-0.043 0.089,-0.058C0.089,-0.067 0.092,-0.079 0.098,-0.093C0.109,-0.121 0.121,-0.134 0.135,-0.134C0.137,-0.134 0.141,-0.133 0.145,-0.132C0.166,-0.122 0.188,-0.114 0.21,-0.108C0.232,-0.103 0.254,-0.1 0.275,-0.1C0.31,-0.1 0.336,-0.107 0.354,-0.119C0.371,-0.132 0.38,-0.151 0.38,-0.175C0.38,-0.198 0.373,-0.216 0.359,-0.228C0.345,-0.24 0.324,-0.246 0.297,-0.246L0.247,-0.246C0.235,-0.246 0.227,-0.249 0.223,-0.257C0.218,-0.264 0.216,-0.278 0.216,-0.298C0.216,-0.318 0.218,-0.332 0.223,-0.339C0.227,-0.347 0.235,-0.351 0.247,-0.351L0.284,-0.351C0.313,-0.351 0.334,-0.356 0.348,-0.367C0.363,-0.377 0.37,-0.394 0.37,-0.417C0.37,-0.439 0.363,-0.456 0.349,-0.467C0.335,-0.479 0.315,-0.484 0.289,-0.484C0.264,-0.484 0.239,-0.481 0.214,-0.473L0.214,-0.435C0.214,-0.423 0.21,-0.415 0.203,-0.411C0.195,-0.406 0.181,-0.404 0.161,-0.404C0.14,-0.404 0.125,-0.406 0.116,-0.411C0.106,-0.416 0.102,-0.424 0.102,-0.435L0.102,-0.526C0.102,-0.541 0.11,-0.551 0.125,-0.557C0.151,-0.568 0.178,-0.576 0.206,-0.582C0.234,-0.587 0.261,-0.59 0.288,-0.59Z" style="fill:rgb(255,255,255);fill-rule:nonzero;"/>
            </g>
        </g>
        <g transform="matrix(0.286338,0,0,0.281779,-7.83731,176.704)">
            <circle cx="621.826" cy="211.826" r="58.174" style="fill:rgb(0,249,177);"/>
        </g>
        <g transform="matrix(0.286338,0,0,0.281779,-31.395,216.858)">
            <circle cx="621.826" cy="211.826" r="58.174" style="fill:rgb(0,249,177);"/>
        </g>
        <g transform="matrix(0.286338,0,0,0.281779,15.7204,216.858)">
            <circle cx="621.826" cy="211.826" r="58.174" style="fill:rgb(0,249,177);"/>
        </g>
    </g>
</svg>
